<svg xmlns="http://www.w3.org/2000/svg" version="1.1" id="svg1" width="288" height="288" viewBox="0 0 288 288" sodipodi:docname="logo.svg" inkscape:version="1.4.2 (f4327f4, 2025-05-13)" xmlns:inkscape="http://www.inkscape.org/namespaces/inkscape" xmlns:sodipodi="http://sodipodi.sourceforge.net/DTD/sodipodi-0.dtd" xmlns:svg="http://www.w3.org/2000/svg"><metadata><rdf:RDF xmlns:rdf="http://www.w3.org/1999/02/22-rdf-syntax-ns#" xmlns:dc="http://purl.org/dc/elements/1.1/"><rdf:Description><dc:creator>RealFaviconGenerator</dc:creator><dc:source>https://realfavicongenerator.net</dc:source></rdf:Description></rdf:RDF></metadata><defs id="defs1"></defs><sodipodi:namedview id="namedview1" pagecolor="#ffffff" bordercolor="#000000" borderopacity="0.25" inkscape:showpageshadow="2" inkscape:pageopacity="0.0" inkscape:pagecheckerboard="0" inkscape:deskcolor="#d1d1d1" inkscape:zoom="1.2349816" inkscape:cx="-12.14593" inkscape:cy="177.73544" inkscape:window-width="1366" inkscape:window-height="705" inkscape:window-x="-8" inkscape:window-y="-8" inkscape:window-maximized="1" inkscape:current-layer="g1"></sodipodi:namedview><g inkscape:groupmode="layer" inkscape:label="Image" id="g1">
    <path style="display:inline;fill:#61fd5e;fill-opacity:1" d="M 127.5,285.41412 C 112.90738,283.35118 98.657971,279.22325 86.361515,273.49664 74.590052,268.01453 59.439453,257.94634 50.242311,249.49395 32.426758,233.12103 17.438709,209.48099 10.620458,187 5.717675,170.83465 4.6081925,162.78987 4.5522739,143 4.5075096,127.1577 4.8338905,123.00875 6.8241845,114.1195 11.677611,92.442647 20.056214,73.880637 32.548098,57.130579 51.505459,31.711124 80.267016,12.484141 111.18369,4.5630101 115.893,3.35644 125.6569,1.961292 138.77597,0.62039319 144.50899,0.03442123 162.35508,1.6429421 171.83235,3.5998634 181.0465,5.5024551 192.32745,9.18285 200.5,12.952651 c 8.3695,3.860648 20.46839,11.144475 27.80383,16.738581 9.27087,7.070094 21.3874,19.798497 28.69646,30.145602 11.85102,16.776974 19.76198,35.083964 24.26964,56.163166 1.61526,7.55345 2.03887,13.29065 2.06741,28 0.0303,15.62378 -0.31307,20.05467 -2.20862,28.49975 -1.23447,5.49986 -3.39668,13.37486 -4.80491,17.5 -6.06099,17.75455 -18.98032,38.94778 -32.02724,52.53835 -15.83706,16.49698 -34.98208,28.92762 -55.72383,36.18086 -13.79382,4.8236 -23.06222,6.34532 -41.07274,6.74346 -9.35,0.20669 -18.35,0.18496 -20,-0.0483 z m 35.29216,-35.99727 c 9.08389,-1.86578 17.70174,-4.6531 24.89587,-8.0522 4.13637,-1.95437 16.01523,-9.35365 21.81197,-13.58656 0.56597,-0.41329 -13.1034,-14.84652 -31.49423,-33.25416 C 160.13394,176.63577 145.0615,162 144.51145,162 143.19536,162 79,226.18627 79,227.50217 c 0,1.04461 9.573928,7.7646 16.308004,11.44667 8.271336,4.52262 19.792956,8.36328 34.191996,11.39768 1.1,0.23181 7.30647,0.47368 13.79216,0.53748 7.29712,0.0718 14.7303,-0.48748 19.5,-1.46715 z M 93.744317,176.75577 C 111.48494,159.02144 126,144.05063 126,143.48731 126,142.52733 61.580512,78 60.622141,78 59.750325,78 52.242052,90.625403 49.21047,97.189095 42.886081,110.88205 39.001517,128.50887 39.004562,143.5 c 0.003,14.85562 3.860686,32.74604 9.792832,45.41547 C 52.042242,195.84557 59.915969,209 60.81921,209 c 0.368183,0 15.184482,-14.5099 32.925107,-32.24423 z m 136.091123,28.72631 c 3.33766,-4.24315 10.79415,-19.55065 13.52207,-27.75959 1.4215,-4.27764 3.27115,-11.70264 4.11033,-16.5 2.9033,-16.59751 1.46646,-34.9675 -4.06108,-51.92051 -2.8637,-8.78302 -11.7361,-26.385063 -14.61089,-28.986713 l -1.88958,-1.71005 -32.45319,32.441663 -32.45319,32.44167 32.24428,32.25572 C 211.97854,193.48492 226.7959,208 227.17165,208 c 0.37575,0 1.57446,-1.13306 2.66379,-2.51792 z M 208.23771,58.710172 C 205.64691,55.847373 190.28864,46.699342 183,43.677533 c -10.78144,-4.469895 -21.59862,-6.778971 -34.5,-7.364497 -8.61217,-0.390862 -14.54087,-0.09856 -21,1.035357 -11.02491,1.935452 -19.85237,4.769418 -28.804484,9.247388 -8.065379,4.034412 -18.620885,11.04616 -19.30236,12.822054 -0.27064,0.705278 13.946201,15.617033 32.311784,33.891172 L 144.5,125.94078 177.21529,93.260772 209.93057,60.580766 Z" id="path1"></path>
  </g></svg>